<svg version="1.0" xmlns="http://www.w3.org/2000/svg" width="512.000000" height="512.000000" viewBox="0 0 512.000000 512.000000" preserveAspectRatio="xMidYMid meet"><rect x="0" y="0" width="100%" height="100%" fill="rgba(0, 0, 0, 0)" /><g transform="translate(0.000000,512.000000) scale(0.100000,-0.100000)" fill="#069FFF" stroke="none"><path d="M3950 2159 c-207 -53 -366 -192 -420 -365 -24 -78 -27 -203 -6 -280 25 -96 95 -197 180 -262 l29 -23 -16 -76 c-15 -70 -15 -79 -1 -93 13 -13 24 -10 107 33 l92 48 78 -16 c167 -32 315 -13 466 61 370 182 426 616 110 856 -61 46 -176 103 -229 112 -20 3 -6 -4 31 -17 105 -38 169 -77 245 -152 119 -117 169 -258 144 -405 -52 -308 -407 -516 -761 -446 l-86 18 -88 -47 c-73 -38 -90 -44 -101 -33 -11 11 -11 23 1 68 8 30 15 64 15 74 0 11 -26 43 -59 72 -111 101 -161 212 -161 358 0 85 17 162 51 228 30 58 136 165 202 204 107 62 195 86 347 94 l135 7 -115 1 c-85 1 -135 -4 -190 -19z"/><path d="M4268 2163 c6 -2 18 -2 25 0 6 3 1 5 -13 5 -14 0 -19 -2 -12 -5z"/><path d="M3885 1875 c-31 -30 -32 -66 -2 -101 46 -53 127 -24 129 46 1 25 -6 39 -26 57 -35 30 -71 29 -101 -2z m86 4 c46 -24 40 -100 -9 -117 -70 -24 -120 51 -70 105 23 25 48 29 79 12z"/><path d="M4295 1875 c-31 -30 -33 -77 -5 -105 31 -31 85 -30 113 2 26 31 22 82 -9 107 -35 28 -69 26 -99 -4z m95 -5 c42 -42 14 -110 -46 -110 -58 0 -83 63 -42 107 26 28 61 30 88 3z"/></g><g transform="translate(0.000000,512.000000) scale(0.100000,-0.100000)" fill="#1FACFF" stroke="none"><path d="M306 2923 c-2 -2 -14 -6 -26 -8 -12 -2 -25 -7 -29 -10 -5 -6 7 -4 68 9 31 7 39 15 12 13 -12 -1 -23 -3 -25 -4z"/><path d="M946 2923 c-2 -2 -14 -6 -26 -8 -12 -2 -25 -7 -29 -10 -5 -6 7 -4 68 9 31 7 39 15 12 13 -12 -1 -23 -3 -25 -4z"/><path d="M1586 2923 c-2 -2 -14 -6 -26 -8 -12 -2 -25 -7 -29 -10 -5 -6 7 -4 68 9 31 7 39 15 12 13 -12 -1 -23 -3 -25 -4z"/><path d="M2226 2923 c-2 -2 -14 -6 -26 -8 -12 -2 -25 -7 -29 -10 -5 -6 7 -4 68 9 31 7 39 15 12 13 -12 -1 -23 -3 -25 -4z"/><path d="M2866 2923 c-2 -2 -14 -6 -26 -8 -12 -2 -25 -7 -29 -10 -5 -6 7 -4 68 9 31 7 39 15 12 13 -12 -1 -23 -3 -25 -4z"/><path d="M3506 2923 c-2 -2 -14 -6 -26 -8 -12 -2 -25 -7 -29 -10 -5 -6 7 -4 68 9 31 7 39 15 12 13 -12 -1 -23 -3 -25 -4z"/><path d="M4146 2923 c-2 -2 -14 -6 -26 -8 -12 -2 -25 -7 -29 -10 -5 -6 7 -4 68 9 31 7 39 15 12 13 -12 -1 -23 -3 -25 -4z"/><path d="M4786 2923 c-2 -2 -14 -6 -26 -8 -12 -2 -25 -7 -29 -10 -5 -6 7 -4 68 9 31 7 39 15 12 13 -12 -1 -23 -3 -25 -4z"/><path d="M497 2908 c-7 -5 0 -6 17 -4 16 3 31 7 33 10 8 8 -37 2 -50 -6z"/><path d="M1137 2908 c-7 -5 0 -6 17 -4 16 3 31 7 33 10 8 8 -37 2 -50 -6z"/><path d="M1777 2908 c-7 -5 0 -6 17 -4 16 3 31 7 33 10 8 8 -37 2 -50 -6z"/><path d="M2417 2908 c-7 -5 0 -6 17 -4 16 3 31 7 33 10 8 8 -37 2 -50 -6z"/><path d="M3057 2908 c-7 -5 0 -6 17 -4 16 3 31 7 33 10 8 8 -37 2 -50 -6z"/><path d="M3697 2908 c-7 -5 0 -6 17 -4 16 3 31 7 33 10 8 8 -37 2 -50 -6z"/><path d="M4337 2908 c-7 -5 0 -6 17 -4 16 3 31 7 33 10 8 8 -37 2 -50 -6z"/><path d="M4977 2908 c-7 -5 0 -6 17 -4 16 3 31 7 33 10 8 8 -37 2 -50 -6z"/><path d="M143 2903 c9 -2 25 -2 35 0 9 3 1 5 -18 5 -19 0 -27 -2 -17 -5z"/><path d="M589 2902 c-3 -9 -26 -14 -71 -15 -39 -1 -61 -5 -52 -10 8 -4 14 -13 14 -20 0 -7 -4 -6 -10 3 -8 12 -11 13 -19 1 -7 -11 -9 -11 -14 0 -4 10 -6 10 -6 2 -1 -8 -14 -13 -31 -13 -30 0 -41 14 -17 23 7 2 8 8 3 13 -5 5 -11 3 -14 -5 -4 -11 -6 -11 -13 0 -6 10 -9 11 -9 2 0 -8 -13 -13 -32 -13 -17 0 -29 -2 -26 -5 11 -11 55 -18 116 -19 52 -1 62 -3 62 -18 0 -10 -3 -18 -7 -19 -8 -1 -16 -2 -60 -13 -13 -3 -33 -8 -45 -11 -12 -2 -25 -10 -30 -17 -6 -10 -8 -9 -8 2 0 13 -1 13 -10 0 -5 -8 -12 -11 -16 -7 -10 9 -2 17 25 22 11 3 31 7 42 10 35 7 36 17 1 10 -20 -3 -32 -1 -32 6 0 8 16 10 50 6 28 -3 50 -1 50 4 0 5 -22 9 -49 9 -27 0 -51 3 -54 8 -2 4 -3 2 -1 -4 1 -6 -2 -17 -7 -25 -5 -8 -9 -9 -9 -3 0 6 -19 11 -42 11 -44 0 -87 8 -96 18 -3 3 9 5 26 5 19 0 32 -5 32 -12 0 -9 4 -8 10 2 6 10 10 11 10 3 0 -8 9 -11 23 -9 12 3 25 5 30 5 4 1 7 5 7 10 0 5 -17 8 -37 8 -21 0 -54 1 -73 3 l-35 3 35 7 c20 4 -7 6 -60 3 -52 -3 -92 -2 -88 1 6 7 28 13 52 15 17 2 -2 12 -30 17 -22 3 -25 2 -14 -6 10 -6 11 -10 3 -10 -7 0 -14 1 -15 2 -2 1 -13 -4 -25 -10 -34 -19 -26 -47 14 -48 18 -1 33 3 33 7 0 5 -13 9 -30 9 -17 0 -30 4 -30 10 0 5 10 8 23 6 12 -3 45 -5 72 -5 39 -1 47 -4 35 -12 -13 -9 -12 -10 2 -5 21 6 30 -5 17 -24 -7 -12 -9 -12 -9 -1 0 10 -12 12 -53 7 -28 -3 -62 -6 -74 -6 -16 0 -23 -6 -23 -19 0 -13 6 -18 24 -16 13 2 29 -1 37 -6 9 -5 2 -8 -21 -6 l-35 2 -3 -1007 -2 -1008 1107 -2 1108 -3 57 -23 c124 -50 237 -165 270 -274 6 -21 14 -38 18 -38 4 0 12 17 18 38 33 109 146 224 270 274 l57 23 1108 3 1107 2 0 1011 c0 655 -4 1008 -10 1004 -16 -10 -107 -29 -99 -20 4 3 16 8 28 10 11 3 31 7 42 10 12 2 24 7 27 10 11 11 10 35 -1 36 -7 0 -22 2 -34 5 -24 4 -32 -11 -11 -19 18 -6 5 -17 -26 -23 -23 -4 -25 -3 -14 10 9 10 15 11 20 2 9 -14 10 -3 2 19 -5 11 -9 13 -14 6 -3 -6 -16 -14 -28 -16 -12 -3 -32 -7 -44 -11 -50 -12 -72 -15 -67 -9 4 3 17 8 30 11 13 3 31 7 39 9 8 2 18 4 23 4 4 1 7 9 8 19 0 14 2 14 9 -3 7 -17 9 -17 9 -2 1 12 9 17 33 17 43 0 32 7 -20 13 -67 7 -72 25 -10 33 18 3 46 7 61 9 33 4 44 12 33 22 -4 4 -11 1 -16 -7 -9 -13 -10 -13 -10 0 0 12 -2 12 -9 2 -5 -9 -32 -14 -74 -15 -39 -1 -60 -5 -51 -10 8 -4 14 -13 14 -20 0 -7 -4 -6 -10 3 -8 12 -11 13 -19 1 -7 -11 -9 -11 -14 0 -4 10 -6 10 -6 2 -1 -8 -14 -13 -31 -13 -30 0 -41 14 -18 23 7 2 9 8 5 13 -4 5 -12 2 -16 -5 -7 -11 -10 -11 -14 0 -4 10 -6 10 -6 2 -1 -8 -14 -13 -33 -13 -17 0 -29 -2 -26 -5 11 -11 55 -18 116 -19 52 -1 62 -3 62 -18 0 -10 -3 -18 -7 -19 -8 -1 -16 -2 -60 -13 -13 -3 -33 -8 -45 -11 -12 -2 -25 -10 -30 -17 -6 -10 -8 -9 -8 2 0 13 -1 13 -10 0 -5 -8 -12 -11 -16 -7 -10 9 -2 17 25 22 11 3 31 7 42 10 35 7 36 17 1 10 -20 -3 -32 -1 -32 6 0 8 16 10 50 6 28 -3 50 -1 50 4 0 5 -22 9 -49 9 -27 0 -51 3 -54 8 -2 4 -3 2 -1 -4 1 -6 -2 -17 -7 -25 -5 -8 -9 -9 -9 -3 0 6 -19 11 -42 11 -44 0 -87 8 -96 18 -3 3 9 5 26 5 19 0 32 -5 32 -12 0 -9 4 -8 10 2 6 10 10 11 10 3 0 -8 9 -11 23 -9 12 3 25 5 30 5 4 1 7 5 7 10 0 5 -17 8 -37 8 -21 0 -54 1 -73 3 l-35 3 35 7 c20 4 -7 6 -60 3 -52 -3 -92 -2 -88 1 6 7 28 13 52 15 17 2 -2 12 -30 17 -22 3 -25 2 -14 -6 8 -5 11 -10 5 -11 -5 0 -19 -3 -30 -6 -11 -3 -39 -5 -62 -6 -24 0 -43 -4 -43 -9 0 -4 3 -8 8 -9 4 0 16 -2 27 -4 11 -2 23 1 27 8 6 9 8 9 8 0 0 -7 -7 -16 -15 -20 -10 -6 2 -9 35 -9 27 0 50 4 50 8 0 4 -13 8 -30 8 -16 0 -30 4 -30 10 0 5 10 8 23 6 12 -3 45 -5 72 -5 39 -1 47 -4 35 -12 -13 -9 -12 -10 2 -5 21 6 30 -5 17 -24 -5 -8 -9 -10 -9 -4 0 7 -36 11 -110 10 -100 -1 -131 -7 -97 -19 17 -6 4 -17 -27 -23 -23 -4 -25 -3 -14 10 9 10 15 11 21 2 6 -7 7 -4 3 7 -3 10 -6 22 -6 25 0 4 -4 1 -8 -6 -5 -7 -18 -15 -30 -17 -12 -3 -32 -7 -44 -11 -50 -12 -72 -15 -67 -9 4 3 17 8 30 11 13 3 31 7 39 9 8 2 18 4 23 4 4 1 7 9 8 19 0 14 2 14 9 -3 7 -17 9 -17 9 -2 1 12 9 17 33 17 43 0 32 7 -20 13 -65 7 -72 25 -13 33 17 2 45 6 62 8 35 5 46 12 35 23 -4 4 -11 1 -16 -7 -9 -13 -10 -13 -10 0 0 12 -2 12 -9 2 -5 -9 -32 -14 -74 -15 -39 -1 -60 -5 -51 -10 8 -4 14 -13 14 -20 0 -7 -4 -6 -10 3 -8 12 -11 13 -19 1 -7 -11 -9 -11 -14 0 -4 10 -6 10 -6 2 -1 -8 -14 -13 -31 -13 -30 0 -41 14 -18 23 7 2 9 8 5 13 -4 5 -12 2 -16 -5 -7 -11 -10 -11 -14 0 -4 10 -6 10 -6 2 -1 -8 -14 -13 -33 -13 -17 0 -29 -2 -26 -5 11 -11 55 -18 116 -19 52 -1 62 -3 62 -18 0 -10 -3 -18 -7 -19 -8 -1 -16 -2 -60 -13 -13 -3 -33 -8 -45 -11 -12 -2 -25 -10 -30 -17 -6 -10 -8 -9 -8 2 0 13 -1 13 -10 0 -5 -8 -12 -11 -16 -7 -10 9 -2 17 25 22 11 3 31 7 42 10 35 7 36 17 1 10 -20 -3 -32 -1 -32 6 0 8 16 10 50 6 28 -3 50 -1 50 4 0 5 -22 9 -49 9 -27 0 -51 3 -54 8 -2 4 -3 2 -1 -4 1 -6 -2 -17 -7 -25 -5 -8 -9 -9 -9 -3 0 6 -19 11 -42 11 -44 0 -87 8 -96 18 -3 3 9 5 26 5 19 0 32 -5 32 -12 0 -9 4 -8 10 2 6 10 10 11 10 3 0 -8 9 -11 23 -9 12 3 25 5 30 5 4 1 7 5 7 10 0 5 -17 8 -37 8 -21 0 -54 1 -73 3 l-35 3 35 7 c20 4 -7 6 -60 3 -52 -3 -92 -2 -88 1 6 7 28 13 52 15 17 2 -2 12 -30 17 -22 3 -25 2 -14 -6 8 -5 11 -10 5 -11 -5 0 -19 -3 -30 -6 -11 -3 -39 -5 -62 -6 -24 0 -43 -4 -43 -9 0 -4 3 -8 8 -9 4 0 16 -2 27 -4 11 -2 23 1 27 8 6 9 8 9 8 0 0 -7 -7 -16 -15 -20 -10 -6 2 -9 35 -9 27 0 50 4 50 8 0 4 -13 8 -30 8 -16 0 -30 4 -30 10 0 5 10 8 23 6 12 -3 45 -5 72 -5 39 -1 47 -4 35 -12 -13 -9 -12 -10 2 -5 21 6 30 -5 17 -24 -5 -8 -9 -10 -9 -4 0 7 -36 11 -110 10 -100 -1 -131 -7 -97 -19 17 -6 4 -17 -27 -23 -23 -4 -25 -3 -14 10 9 10 15 11 21 2 6 -7 7 -4 3 7 -3 10 -6 22 -6 25 0 4 -4 1 -8 -6 -5 -7 -18 -15 -30 -17 -12 -3 -32 -7 -44 -11 -50 -12 -72 -15 -67 -9 4 3 17 8 30 11 13 3 31 7 39 9 8 2 18 4 23 4 4 1 7 9 8 19 0 14 2 14 9 -3 7 -17 9 -17 9 -2 1 12 9 17 33 17 43 0 32 7 -20 13 -65 7 -72 25 -13 33 17 2 45 6 62 8 35 5 46 12 35 23 -4 4 -11 1 -16 -7 -9 -13 -10 -13 -10 0 0 12 -2 12 -9 2 -5 -9 -32 -14 -74 -15 -39 -1 -60 -5 -51 -10 8 -4 14 -13 14 -20 0 -7 -4 -6 -10 3 -8 12 -11 13 -19 1 -7 -11 -9 -11 -14 0 -4 10 -6 10 -6 2 -1 -8 -14 -13 -31 -13 -30 0 -41 14 -17 23 6 2 8 8 4 13 -4 5 -12 2 -16 -5 -7 -11 -10 -11 -14 0 -4 10 -6 10 -6 2 -1 -8 -14 -13 -33 -13 -17 0 -29 -2 -26 -5 11 -11 55 -18 116 -19 52 -1 62 -3 62 -18 0 -10 -3 -18 -7 -19 -8 -1 -16 -2 -60 -13 -13 -3 -33 -8 -45 -11 -12 -2 -25 -10 -30 -17 -6 -10 -8 -9 -8 2 0 13 -1 13 -10 0 -5 -8 -12 -11 -16 -7 -10 9 -2 17 25 22 11 3 31 7 42 10 35 7 36 17 1 10 -20 -3 -32 -1 -32 6 0 8 16 10 50 6 28 -3 50 -1 50 4 0 5 -22 9 -49 9 -27 0 -51 3 -54 8 -2 4 -3 2 -1 -4 1 -6 -2 -17 -7 -25 -5 -8 -9 -9 -9 -3 0 6 -19 11 -42 11 -44 0 -87 8 -96 18 -3 3 9 5 26 5 19 0 32 -5 32 -12 0 -9 4 -8 10 2 6 10 10 11 10 3 0 -8 9 -11 23 -9 12 3 25 5 30 5 4 1 7 5 7 10 0 5 -17 8 -37 8 -21 0 -54 1 -73 3 l-35 3 35 7 c20 4 -7 6 -60 3 -52 -3 -92 -2 -88 1 6 7 28 13 52 15 17 2 -2 12 -30 17 -22 3 -25 2 -14 -6 8 -5 11 -10 5 -11 -5 0 -19 -3 -30 -6 -11 -3 -39 -5 -62 -6 -24 0 -43 -4 -43 -9 0 -4 3 -8 8 -9 4 0 16 -2 27 -4 11 -2 23 1 27 8 6 9 8 9 8 0 0 -7 -7 -16 -15 -20 -10 -6 2 -9 35 -9 27 0 50 4 50 8 0 4 -13 8 -30 8 -16 0 -30 4 -30 10 0 5 10 8 23 6 12 -3 45 -5 72 -5 39 -1 47 -4 35 -12 -13 -9 -12 -10 2 -5 21 6 30 -5 17 -24 -5 -8 -9 -10 -9 -4 0 7 -36 11 -110 10 -100 -1 -131 -7 -97 -19 17 -6 4 -17 -27 -23 -23 -4 -25 -3 -14 10 9 10 15 11 21 2 6 -7 7 -4 3 7 -3 10 -6 22 -6 25 0 4 -4 1 -8 -6 -5 -7 -18 -15 -30 -17 -12 -3 -32 -7 -44 -11 -50 -12 -72 -15 -67 -9 4 3 17 8 30 11 13 3 31 7 39 9 8 2 18 4 23 4 4 1 7 9 8 19 0 14 2 14 9 -3 7 -17 9 -17 9 -2 1 12 9 17 33 17 43 0 32 7 -20 13 -65 7 -72 25 -13 33 17 2 45 6 62 8 35 5 46 12 35 23 -4 4 -11 1 -16 -7 -9 -13 -10 -13 -10 0 0 12 -2 12 -9 2 -5 -9 -32 -14 -74 -15 -39 -1 -60 -5 -51 -10 8 -4 14 -13 14 -20 0 -7 -4 -6 -10 3 -8 12 -11 13 -19 1 -7 -11 -9 -11 -14 0 -4 10 -6 10 -6 2 -1 -8 -14 -13 -31 -13 -30 0 -41 14 -17 23 6 2 8 8 4 13 -4 5 -12 2 -16 -5 -7 -11 -10 -11 -14 0 -4 10 -6 10 -6 2 -1 -8 -14 -13 -33 -13 -17 0 -29 -2 -26 -5 11 -11 55 -18 116 -19 52 -1 62 -3 62 -18 0 -10 -3 -18 -7 -19 -8 -1 -16 -2 -60 -13 -13 -3 -33 -8 -45 -11 -12 -2 -25 -10 -30 -17 -6 -10 -8 -9 -8 2 0 13 -1 13 -10 0 -5 -8 -12 -11 -16 -7 -10 9 -2 17 25 22 11 3 31 7 42 10 35 7 36 17 1 10 -20 -3 -32 -1 -32 6 0 8 16 10 50 6 28 -3 50 -1 50 4 0 5 -22 9 -49 9 -27 0 -51 3 -54 8 -2 4 -3 2 -1 -4 1 -6 -2 -17 -7 -25 -5 -8 -9 -9 -9 -3 0 6 -19 11 -42 11 -44 0 -87 8 -96 18 -3 3 9 5 26 5 19 0 32 -5 32 -12 0 -9 4 -8 10 2 6 10 10 11 10 3 0 -8 9 -11 23 -9 12 3 25 5 30 5 4 1 7 5 7 10 0 5 -17 8 -37 8 -21 0 -54 1 -73 3 l-35 3 35 7 c20 4 -7 6 -60 3 -52 -3 -92 -2 -88 1 6 7 28 13 52 15 17 2 -2 12 -30 17 -22 3 -25 2 -14 -6 8 -5 11 -10 5 -11 -5 0 -19 -3 -30 -6 -11 -3 -39 -5 -62 -6 -24 0 -43 -4 -43 -9 0 -4 3 -8 8 -9 4 0 16 -2 27 -4 11 -2 23 1 27 8 6 9 8 9 8 0 0 -7 -7 -16 -15 -20 -10 -6 2 -9 35 -9 27 0 50 4 50 8 0 4 -13 8 -30 8 -16 0 -30 4 -30 10 0 5 10 8 23 6 12 -3 45 -5 72 -5 39 -1 47 -4 35 -12 -13 -9 -12 -10 2 -5 21 6 30 -5 17 -24 -5 -8 -9 -10 -9 -4 0 7 -36 11 -110 10 -100 -1 -131 -7 -97 -19 17 -6 4 -17 -27 -23 -23 -4 -25 -3 -14 10 9 10 15 11 21 2 6 -7 7 -4 3 7 -3 10 -6 22 -6 25 0 4 -4 1 -8 -6 -5 -7 -18 -15 -30 -17 -12 -3 -32 -7 -44 -11 -50 -12 -72 -15 -67 -9 4 3 17 8 30 11 13 3 31 7 39 9 8 2 18 4 23 4 4 1 7 9 8 19 0 14 2 14 9 -3 7 -17 9 -17 9 -2 1 12 9 17 33 17 43 0 32 7 -20 13 -65 7 -72 25 -13 33 17 2 45 6 62 8 35 5 46 12 35 23 -4 4 -11 1 -16 -7 -9 -13 -10 -13 -10 0 0 12 -2 12 -9 2 -5 -9 -32 -14 -74 -15 -39 -1 -60 -5 -51 -10 8 -4 14 -13 14 -20 0 -7 -4 -6 -10 3 -8 12 -11 13 -19 1 -7 -11 -9 -11 -14 0 -4 10 -6 10 -6 2 -1 -8 -14 -13 -31 -13 -30 0 -41 14 -17 23 6 2 8 8 4 13 -4 5 -12 2 -16 -5 -7 -11 -10 -11 -14 0 -4 10 -6 10 -6 2 -1 -8 -14 -13 -33 -13 -17 0 -29 -2 -26 -5 11 -11 55 -18 116 -19 52 -1 62 -3 62 -18 0 -10 -3 -18 -7 -19 -8 -1 -16 -2 -60 -13 -13 -3 -33 -8 -45 -11 -12 -2 -25 -10 -30 -17 -6 -10 -8 -9 -8 2 0 13 -1 13 -10 0 -5 -8 -12 -11 -16 -7 -10 9 -2 17 25 22 11 3 31 7 42 10 35 7 36 17 1 10 -20 -3 -32 -1 -32 6 0 8 16 10 50 6 28 -3 50 -1 50 4 0 5 -22 9 -49 9 -27 0 -51 3 -54 8 -2 4 -3 2 -1 -4 1 -6 -2 -17 -7 -25 -5 -8 -9 -9 -9 -3 0 6 -19 11 -42 11 -44 0 -87 8 -96 18 -3 3 9 5 26 5 19 0 32 -5 32 -12 0 -9 4 -8 10 2 6 10 10 11 10 3 0 -8 9 -11 23 -9 12 3 25 5 30 5 4 1 7 5 7 10 0 5 -17 8 -37 8 -21 0 -54 1 -73 3 l-35 3 35 7 c20 4 -7 6 -60 3 -52 -3 -92 -2 -88 1 6 7 28 13 52 15 17 2 -2 12 -30 17 -22 3 -25 2 -14 -6 8 -5 11 -10 5 -11 -5 0 -19 -3 -30 -6 -11 -3 -39 -5 -62 -6 -24 0 -43 -4 -43 -9 0 -4 3 -8 8 -9 4 0 16 -2 27 -4 11 -2 23 1 27 8 6 9 8 9 8 0 0 -7 -7 -16 -15 -20 -10 -6 2 -9 35 -9 27 0 50 4 50 8 0 4 -13 8 -30 8 -16 0 -30 4 -30 10 0 5 10 8 23 6 12 -3 45 -5 72 -5 39 -1 47 -4 35 -12 -13 -9 -12 -10 2 -5 21 6 30 -5 17 -24 -5 -8 -9 -10 -9 -4 0 7 -36 11 -110 10 -100 -1 -131 -7 -97 -19 17 -6 4 -17 -27 -23 -23 -4 -25 -3 -14 10 9 10 15 11 21 2 6 -7 7 -4 3 7 -3 10 -6 22 -6 25 0 4 -4 1 -8 -6 -5 -7 -18 -15 -30 -17 -12 -3 -32 -7 -44 -11 -50 -12 -72 -15 -67 -9 4 3 17 8 30 11 13 3 31 7 39 9 8 2 18 4 23 4 4 1 7 9 8 19 0 14 2 14 9 -3 7 -17 9 -17 9 -2 1 12 9 17 33 17 43 0 32 7 -20 13 -67 7 -72 25 -10 33 18 3 46 7 61 9 33 4 44 12 33 22 -4 4 -11 1 -16 -7 -9 -13 -10 -13 -10 0 0 12 -2 12 -9 2 -5 -9 -32 -14 -74 -15 -39 -1 -60 -5 -51 -10 8 -4 14 -13 14 -20 0 -7 -4 -6 -10 3 -8 12 -11 13 -19 1 -7 -11 -9 -11 -14 0 -4 10 -6 10 -6 2 -1 -8 -14 -13 -31 -13 -30 0 -41 14 -17 23 6 2 8 8 4 13 -4 5 -12 2 -16 -5 -7 -11 -10 -11 -14 0 -4 10 -6 10 -6 2 -1 -8 -14 -13 -33 -13 -17 0 -29 -2 -26 -5 11 -11 55 -18 116 -19 52 -1 62 -3 62 -18 0 -10 -3 -18 -7 -19 -8 -1 -16 -2 -60 -13 -13 -3 -33 -8 -45 -11 -12 -2 -25 -10 -30 -17 -6 -10 -8 -9 -8 2 0 13 -1 13 -10 0 -5 -8 -12 -11 -16 -7 -10 9 -2 17 25 22 11 3 31 7 42 10 35 7 36 17 1 10 -20 -3 -32 -1 -32 6 0 8 16 10 50 6 28 -3 50 -1 50 4 0 5 -22 9 -49 9 -27 0 -51 3 -54 8 -2 4 -3 2 -1 -4 1 -6 -2 -17 -7 -25 -5 -8 -9 -9 -9 -3 0 6 -19 11 -42 11 -44 0 -87 8 -96 18 -3 3 9 5 26 5 19 0 32 -5 32 -12 0 -9 4 -8 10 2 6 10 10 11 10 3 0 -8 9 -11 23 -9 12 3 25 5 30 5 4 1 7 5 7 10 0 5 -17 8 -37 8 -21 0 -54 1 -73 3 l-35 3 35 7 c20 4 -7 6 -60 3 -52 -3 -92 -2 -88 1 6 7 28 13 52 15 17 2 -2 12 -30 17 -22 3 -25 2 -14 -6 8 -5 11 -10 5 -11 -5 0 -19 -3 -30 -6 -11 -3 -39 -5 -62 -6 -24 0 -43 -4 -43 -9 0 -4 3 -8 8 -9 4 0 16 -2 27 -4 11 -2 23 1 27 8 6 9 8 9 8 0 0 -7 -7 -16 -15 -20 -10 -6 2 -9 35 -9 27 0 50 4 50 8 0 4 -13 8 -30 8 -16 0 -30 4 -30 10 0 5 10 8 23 6 12 -3 45 -5 72 -5 39 -1 47 -4 35 -12 -13 -9 -12 -10 2 -5 21 6 30 -5 17 -24 -5 -8 -9 -10 -9 -4 0 7 -36 11 -110 10 -100 -1 -131 -7 -97 -19 17 -6 4 -17 -27 -23 -23 -4 -25 -3 -14 10 9 10 15 11 21 2 6 -7 7 -4 3 7 -3 10 -6 22 -6 25 0 4 -4 1 -8 -6 -5 -7 -18 -15 -30 -17 -12 -3 -32 -7 -44 -11 -50 -12 -72 -15 -67 -9 4 3 17 8 30 11 13 3 31 7 39 9 8 2 18 4 23 4 4 1 7 9 8 19 0 14 2 14 9 -3 7 -17 9 -17 9 -2 1 12 9 17 33 17 43 0 32 7 -20 13 -67 7 -72 25 -10 33 18 3 46 7 61 9 33 4 44 12 33 22 -4 4 -11 1 -16 -7 -9 -13 -10 -13 -10 0 0 12 -2 12 -9 2 -5 -9 -32 -14 -74 -15 -39 -1 -60 -5 -51 -10 8 -4 14 -13 14 -20 0 -7 -4 -6 -10 3 -8 12 -11 13 -19 1 -7 -11 -9 -11 -14 0 -4 10 -6 10 -6 2 -1 -8 -14 -13 -31 -13 -30 0 -41 14 -17 23 6 2 8 8 4 13 -4 5 -12 2 -16 -5 -7 -11 -10 -11 -14 0 -4 10 -6 10 -6 2 -1 -8 -14 -13 -33 -13 -17 0 -29 -2 -26 -5 11 -11 55 -18 116 -19 52 -1 62 -3 62 -18 0 -10 -3 -18 -7 -19 -8 -1 -16 -2 -60 -13 -13 -3 -33 -8 -45 -11 -12 -2 -25 -10 -30 -17 -6 -10 -8 -9 -8 2 0 13 -1 13 -10 0 -5 -8 -12 -11 -16 -7 -10 9 -2 17 25 22 11 3 31 7 42 10 35 7 36 17 1 10 -20 -3 -32 -1 -32 6 0 8 16 10 50 6 28 -3 50 -1 50 4 0 5 -22 9 -49 9 -27 0 -51 3 -54 8 -2 4 -3 2 -1 -4 1 -6 -2 -17 -7 -25 -5 -8 -9 -9 -9 -3 0 6 -19 11 -42 11 -44 0 -87 8 -96 18 -3 3 9 5 26 5 19 0 32 -5 32 -12 0 -9 4 -8 10 2 6 10 10 11 10 3 0 -8 9 -11 23 -9 12 3 25 5 30 5 4 1 7 5 7 10 0 5 -17 8 -37 8 -21 0 -54 1 -73 3 l-35 3 35 7 c20 4 -7 6 -60 3 -52 -3 -92 -2 -88 1 6 7 28 13 52 15 17 2 -2 12 -30 17 -22 3 -25 2 -14 -6 8 -5 11 -10 5 -11 -5 0 -19 -3 -30 -6 -11 -3 -39 -5 -62 -6 -24 0 -43 -4 -43 -9 0 -4 3 -8 8 -9 4 0 16 -2 27 -4 11 -2 23 1 27 8 6 9 8 9 8 0 0 -7 -7 -16 -15 -20 -10 -6 2 -9 35 -9 27 0 50 4 50 8 0 4 -13 8 -30 8 -16 0 -30 4 -30 10 0 5 10 8 23 6 12 -3 45 -5 72 -5 39 -1 47 -4 35 -12 -13 -9 -12 -10 2 -5 21 6 30 -5 17 -24 -5 -8 -9 -10 -9 -4 0 7 -36 11 -110 10 -100 -1 -131 -7 -97 -19 17 -6 4 -17 -27 -23 -23 -4 -25 -3 -14 10 9 10 15 11 21 2 6 -7 7 -4 3 7 -3 10 -6 22 -6 25 0 4 -4 1 -8 -6 -5 -7 -18 -15 -30 -17 -12 -3 -32 -7 -44 -11 -50 -12 -72 -15 -67 -9 4 3 17 8 30 11 13 3 31 7 39 9 8 2 18 4 23 4 4 1 7 9 8 19 0 14 2 14 9 -3 7 -17 9 -17 9 -2 1 12 9 17 33 17 43 0 32 7 -20 13 -65 7 -72 25 -13 33 17 2 45 6 62 8 35 5 46 12 35 23 -4 4 -11 1 -15 -6 -7 -11 -9 -11 -13 0 -4 11 -5 12 -9 1z m-102 -84 c-3 -7 -5 -2 -5 12 0 14 2 19 5 13 2 -7 2 -19 0 -25z m640 0 c-3 -7 -5 -2 -5 12 0 14 2 19 5 13 2 -7 2 -19 0 -25z m640 0 c-3 -7 -5 -2 -5 12 0 14 2 19 5 13 2 -7 2 -19 0 -25z m640 0 c-3 -7 -5 -2 -5 12 0 14 2 19 5 13 2 -7 2 -19 0 -25z m640 0 c-3 -7 -5 -2 -5 12 0 14 2 19 5 13 2 -7 2 -19 0 -25z m640 0 c-3 -7 -5 -2 -5 12 0 14 2 19 5 13 2 -7 2 -19 0 -25z m640 0 c-3 -7 -5 -2 -5 12 0 14 2 19 5 13 2 -7 2 -19 0 -25z m640 0 c-3 -7 -5 -2 -5 12 0 14 2 19 5 13 2 -7 2 -19 0 -25z m-4777 -8 c0 -5 -4 -10 -10 -10 -5 0 -10 5 -10 10 0 6 5 10 10 10 6 0 10 -4 10 -10z m55 -13 c29 -4 29 -4 -5 -6 -27 -1 -32 -4 -20 -11 11 -8 7 -9 -15 -5 -16 3 -66 8 -110 11 -44 4 -82 9 -85 12 -3 2 37 2 88 -2 80 -6 93 -4 99 10 3 9 8 11 12 6 3 -6 20 -12 36 -15z m585 13 c0 -5 -4 -10 -10 -10 -5 0 -10 5 -10 10 0 6 5 10 10 10 6 0 10 -4 10 -10z m55 -13 c29 -4 29 -4 -5 -6 -27 -1 -32 -4 -20 -11 11 -8 7 -9 -15 -5 -16 3 -66 8 -110 11 -44 4 -82 9 -85 12 -3 2 37 2 88 -2 80 -6 93 -4 99 10 3 9 8 11 12 6 3 -6 20 -12 36 -15z m585 13 c0 -5 -4 -10 -10 -10 -5 0 -10 5 -10 10 0 6 5 10 10 10 6 0 10 -4 10 -10z m55 -13 c29 -4 29 -4 -5 -6 -27 -1 -32 -4 -20 -11 11 -8 7 -9 -15 -5 -16 3 -66 8 -110 11 -44 4 -82 9 -85 12 -3 2 37 2 88 -2 80 -6 93 -4 99 10 3 9 8 11 12 6 3 -6 20 -12 36 -15z m585 13 c0 -5 -4 -10 -10 -10 -5 0 -10 5 -10 10 0 6 5 10 10 10 6 0 10 -4 10 -10z m55 -13 c29 -4 29 -4 -5 -6 -27 -1 -32 -4 -20 -11 11 -8 7 -9 -15 -5 -16 3 -66 8 -110 11 -44 4 -82 9 -85 12 -3 2 37 2 88 -2 80 -6 93 -4 99 10 3 9 8 11 12 6 3 -6 20 -12 36 -15z m585 13 c0 -5 -4 -10 -10 -10 -5 0 -10 5 -10 10 0 6 5 10 10 10 6 0 10 -4 10 -10z m55 -13 c29 -4 29 -4 -5 -6 -27 -1 -32 -4 -20 -11 11 -8 7 -9 -15 -5 -16 3 -66 8 -110 11 -44 4 -82 9 -85 12 -3 2 37 2 88 -2 80 -6 93 -4 99 10 3 9 8 11 12 6 3 -6 20 -12 36 -15z m585 13 c0 -5 -4 -10 -10 -10 -5 0 -10 5 -10 10 0 6 5 10 10 10 6 0 10 -4 10 -10z m55 -13 c29 -4 29 -4 -5 -6 -27 -1 -32 -4 -20 -11 11 -8 7 -9 -15 -5 -16 3 -66 8 -110 11 -44 4 -82 9 -85 12 -3 2 37 2 88 -2 80 -6 93 -4 99 10 3 9 8 11 12 6 3 -6 20 -12 36 -15z m585 13 c0 -5 -4 -10 -10 -10 -5 0 -10 5 -10 10 0 6 5 10 10 10 6 0 10 -4 10 -10z m55 -13 c29 -4 29 -4 -5 -6 -27 -1 -32 -4 -20 -11 11 -8 7 -9 -15 -5 -16 3 -66 8 -110 11 -44 4 -82 9 -85 12 -3 2 37 2 88 -2 80 -6 93 -4 99 10 3 9 8 11 12 6 3 -6 20 -12 36 -15z m585 13 c0 -5 -4 -10 -10 -10 -5 0 -10 5 -10 10 0 6 5 10 10 10 6 0 10 -4 10 -10z m55 -13 c29 -4 29 -4 -5 -6 -27 -1 -32 -4 -20 -11 11 -8 7 -9 -15 -5 -16 3 -66 8 -110 11 -44 4 -82 9 -85 12 -3 2 37 2 88 -2 80 -6 93 -4 99 10 3 9 8 11 12 6 3 -6 20 -12 36 -15z m-4020 -29 c3 -2 -14 -5 -38 -5 -23 0 -53 -4 -67 -7 -46 -13 -75 -17 -69 -11 4 3 16 8 28 10 11 3 31 7 42 10 12 2 24 6 26 9 5 5 72 0 78 -6z m640 0 c3 -2 -14 -5 -38 -5 -23 0 -53 -4 -67 -7 -46 -13 -75 -17 -69 -11 4 3 16 8 28 10 11 3 31 7 42 10 12 2 24 6 26 9 5 5 72 0 78 -6z m640 0 c3 -2 -14 -5 -38 -5 -23 0 -53 -4 -67 -7 -46 -13 -75 -17 -69 -11 4 3 16 8 28 10 11 3 31 7 42 10 12 2 24 6 26 9 5 5 72 0 78 -6z m640 0 c3 -2 -14 -5 -38 -5 -23 0 -53 -4 -67 -7 -46 -13 -75 -17 -69 -11 4 3 16 8 28 10 11 3 31 7 42 10 12 2 24 6 26 9 5 5 72 0 78 -6z m640 0 c3 -2 -14 -5 -38 -5 -23 0 -53 -4 -67 -7 -46 -13 -75 -17 -69 -11 4 3 16 8 28 10 11 3 31 7 42 10 12 2 24 6 26 9 5 5 72 0 78 -6z m640 0 c3 -2 -14 -5 -38 -5 -23 0 -53 -4 -67 -7 -46 -13 -75 -17 -69 -11 4 3 16 8 28 10 11 3 31 7 42 10 12 2 24 6 26 9 5 5 72 0 78 -6z m640 0 c3 -2 -14 -5 -38 -5 -23 0 -53 -4 -67 -7 -46 -13 -75 -17 -69 -11 4 3 16 8 28 10 11 3 31 7 42 10 12 2 24 6 26 9 5 5 72 0 78 -6z m-295 -597 c0 -4 11 -6 25 -3 15 2 25 0 25 -7 0 -7 4 -10 9 -7 15 10 71 -6 64 -17 -3 -6 -1 -7 5 -3 16 10 133 -44 125 -57 -3 -5 -1 -7 5 -3 22 13 168 -116 155 -138 -4 -5 -1 -6 4 -3 14 9 46 -40 37 -55 -4 -6 -3 -8 3 -5 13 8 26 -20 16 -35 -3 -6 -1 -8 5 -4 13 8 26 -29 16 -45 -4 -7 -3 -9 4 -6 13 9 26 -63 17 -95 -5 -18 -4 -20 4 -8 8 11 11 4 11 -30 0 -34 -3 -41 -10 -30 -8 11 -9 8 -4 -13 8 -33 -4 -100 -16 -92 -4 3 -6 -5 -2 -17 4 -16 2 -19 -8 -13 -8 5 -11 4 -6 -3 7 -13 -24 -83 -35 -77 -3 3 -6 -3 -5 -13 0 -9 -5 -16 -12 -14 -8 1 -11 -2 -8 -7 8 -12 -32 -61 -47 -58 -7 1 -11 -4 -10 -10 7 -35 -229 -167 -298 -168 -20 0 -35 -3 -33 -6 6 -10 -64 -19 -154 -19 -47 0 -81 4 -78 9 4 5 -3 7 -13 4 -10 -3 -44 0 -75 7 -52 11 -60 10 -92 -9 -20 -12 -40 -18 -46 -15 -7 5 -8 2 -3 -6 6 -10 4 -12 -9 -7 -9 4 -15 3 -12 -2 3 -4 -12 -16 -34 -26 -32 -15 -42 -15 -55 -5 -18 15 -21 45 -3 34 7 -4 8 -3 4 4 -4 7 -2 39 5 73 11 55 10 62 -5 71 -9 5 -13 14 -10 20 4 7 2 8 -4 4 -15 -9 -95 71 -86 86 4 6 3 8 -4 4 -13 -8 -56 60 -46 75 5 8 3 9 -6 4 -10 -6 -12 -4 -7 9 4 10 3 15 -3 11 -11 -7 -34 71 -26 92 3 8 1 11 -4 8 -6 -4 -10 29 -10 90 0 70 3 94 12 89 7 -5 8 -3 3 5 -10 17 15 102 28 94 5 -3 7 -1 3 5 -9 14 14 63 27 55 6 -3 7 -1 4 4 -16 26 140 182 166 166 5 -3 7 -2 4 4 -8 13 50 46 65 37 7 -4 8 -3 4 4 -8 14 149 65 181 59 12 -2 20 0 17 4 -3 5 47 9 110 9 64 0 116 -4 116 -9z"/><path d="M3940 1893 c-35 -7 -67 -39 -72 -73 -2 -16 0 -26 4 -23 5 3 8 -3 6 -13 -3 -18 1 -20 38 -23 8 0 13 -5 10 -9 -3 -5 1 -9 9 -9 8 0 12 4 10 8 -3 4 6 10 20 13 15 4 27 16 31 31 3 14 9 23 13 20 4 -2 8 2 8 10 0 8 -4 12 -9 9 -4 -3 -9 2 -9 10 -3 37 -5 41 -23 38 -11 -2 -15 1 -11 7 3 6 5 10 3 10 -2 -1 -14 -4 -28 -6z"/><path d="M4350 1893 c-33 -6 -70 -41 -70 -68 0 -37 28 -65 64 -65 19 0 39 7 46 15 7 8 16 13 20 10 4 -2 4 15 0 38 -5 23 -6 45 -3 50 2 4 1 7 -4 6 -20 -3 -34 2 -28 11 3 6 5 9 3 9 -2 -1 -14 -4 -28 -6z"/><path d="M783 2903 c9 -2 25 -2 35 0 9 3 1 5 -18 5 -19 0 -27 -2 -17 -5z"/><path d="M1423 2903 c9 -2 25 -2 35 0 9 3 1 5 -18 5 -19 0 -27 -2 -17 -5z"/><path d="M2063 2903 c9 -2 25 -2 35 0 9 3 1 5 -18 5 -19 0 -27 -2 -17 -5z"/><path d="M2703 2903 c9 -2 25 -2 35 0 9 3 1 5 -18 5 -19 0 -27 -2 -17 -5z"/><path d="M3343 2903 c9 -2 25 -2 35 0 9 3 1 5 -18 5 -19 0 -27 -2 -17 -5z"/><path d="M3983 2903 c9 -2 25 -2 35 0 9 3 1 5 -18 5 -19 0 -27 -2 -17 -5z"/><path d="M4623 2903 c9 -2 25 -2 35 0 9 3 1 5 -18 5 -19 0 -27 -2 -17 -5z"/><path d="M263 2883 c9 -2 25 -2 35 0 9 3 1 5 -18 5 -19 0 -27 -2 -17 -5z"/><path d="M903 2883 c9 -2 25 -2 35 0 9 3 1 5 -18 5 -19 0 -27 -2 -17 -5z"/><path d="M1543 2883 c9 -2 25 -2 35 0 9 3 1 5 -18 5 -19 0 -27 -2 -17 -5z"/><path d="M2183 2883 c9 -2 25 -2 35 0 9 3 1 5 -18 5 -19 0 -27 -2 -17 -5z"/><path d="M2823 2883 c9 -2 25 -2 35 0 9 3 1 5 -18 5 -19 0 -27 -2 -17 -5z"/><path d="M3463 2883 c9 -2 25 -2 35 0 9 3 1 5 -18 5 -19 0 -27 -2 -17 -5z"/><path d="M4103 2883 c9 -2 25 -2 35 0 9 3 1 5 -18 5 -19 0 -27 -2 -17 -5z"/><path d="M4743 2883 c9 -2 25 -2 35 0 9 3 1 5 -18 5 -19 0 -27 -2 -17 -5z"/><path d="M5050 2859 c0 -5 3 -9 8 -10 24 -2 45 -8 50 -15 4 -4 -1 -4 -10 -1 -10 3 -20 2 -22 -2 -3 -5 4 -8 16 -7 14 1 22 8 23 21 1 16 -5 20 -32 21 -18 1 -33 -3 -33 -7z"/></g><g transform="translate(0.000000,512.000000) scale(0.100000,-0.100000)" fill="#1FB2FF" stroke="none"><path d="M600 5109 c-156 -23 -281 -87 -395 -203 -62 -62 -90 -101 -123 -166 -81 -164 -77 -99 -79 -1069 l-2 -863 74 7 c59 5 75 4 75 -7 0 -10 3 -10 9 2 13 19 4 30 -17 24 -14 -5 -15 -4 -2 5 12 8 4 11 -35 12 -56 1 -84 5 -93 13 -3 3 0 7 6 7 7 1 17 3 22 4 6 1 16 3 23 4 8 1 7 4 -3 11 -11 8 -8 9 14 6 28 -5 47 -15 30 -17 -24 -2 -46 -8 -52 -15 -4 -3 36 -4 88 -1 53 3 80 1 60 -3 l-35 -7 35 -3 c19 -2 52 -3 73 -3 20 0 37 -3 37 -8 0 -5 -3 -9 -7 -10 -5 0 -18 -2 -30 -5 -14 -2 -23 1 -23 9 0 8 -4 7 -10 -3 -6 -10 -10 -11 -10 -2 0 7 -13 12 -32 12 -17 0 -29 -2 -26 -5 9 -10 52 -18 95 -18 24 0 43 -5 43 -11 0 -6 4 -5 9 3 5 8 8 19 7 25 -2 6 -1 8 1 4 3 -5 27 -8 54 -8 27 0 49 -4 49 -9 0 -5 -22 -7 -50 -4 -34 4 -50 2 -50 -6 0 -7 12 -9 32 -6 35 7 34 -3 -1 -10 -11 -3 -31 -7 -42 -10 -27 -5 -35 -13 -25 -22 4 -4 11 -1 16 7 9 13 10 13 10 0 0 -11 2 -12 8 -2 5 7 18 15 30 17 12 3 32 8 44 11 45 11 53 12 61 13 4 1 7 9 7 19 0 15 -10 17 -62 18 -61 1 -105 8 -116 19 -3 3 9 5 26 5 19 0 32 5 32 13 0 9 3 8 9 -2 7 -11 9 -11 13 0 3 8 9 10 14 5 5 -5 4 -11 -3 -13 -24 -9 -13 -23 17 -23 17 0 30 5 30 13 0 9 3 8 9 -2 7 -11 9 -11 14 0 4 12 7 11 16 -1 7 -9 11 -11 11 -3 0 7 -6 16 -14 20 -9 5 12 9 51 10 42 1 69 6 74 15 7 10 9 10 9 -2 0 -13 1 -13 10 0 5 8 12 11 16 7 11 -11 0 -18 -35 -23 -17 -2 -45 -6 -62 -8 -59 -8 -52 -26 13 -33 52 -6 63 -13 20 -13 -24 0 -32 -5 -33 -17 0 -15 -2 -15 -9 2 -7 17 -9 17 -9 3 -1 -10 -4 -18 -8 -19 -5 0 -15 -2 -23 -4 -8 -2 -26 -6 -39 -9 -13 -3 -26 -8 -30 -11 -5 -6 17 -3 67 9 12 4 32 8 44 11 12 2 25 10 28 16 5 7 9 5 14 -6 8 -22 7 -33 -2 -19 -5 9 -11 8 -20 -2 -11 -13 -9 -14 14 -10 31 6 44 17 27 23 -34 12 -3 18 97 19 74 1 110 -3 110 -10 0 -6 4 -4 9 4 13 19 4 30 -17 24 -14 -5 -15 -4 -2 5 12 8 4 11 -35 12 -27 0 -60 2 -72 5 -13 2 -23 -1 -23 -6 0 -6 14 -10 30 -10 17 0 30 -4 30 -8 0 -4 -23 -8 -50 -8 -33 0 -45 3 -35 9 8 4 15 13 15 20 0 9 -2 9 -8 0 -4 -7 -16 -10 -27 -8 -11 2 -23 4 -27 4 -5 1 -8 5 -8 9 0 5 19 9 43 9 23 1 51 3 62 6 11 3 25 6 30 6 6 1 3 6 -5 11 -11 8 -8 9 14 6 28 -5 47 -15 30 -17 -24 -2 -46 -8 -52 -15 -4 -3 36 -4 88 -1 53 3 80 1 60 -3 l-35 -7 35 -3 c19 -2 52 -3 73 -3 20 0 37 -3 37 -8 0 -5 -3 -9 -7 -10 -5 0 -18 -2 -30 -5 -14 -2 -23 1 -23 9 0 8 -4 7 -10 -3 -6 -10 -10 -11 -10 -2 0 7 -13 12 -32 12 -17 0 -29 -2 -26 -5 9 -10 52 -18 96 -18 23 0 42 -5 42 -11 0 -6 4 -5 9 3 5 8 8 19 7 25 -2 6 -1 8 1 4 3 -5 27 -8 54 -8 27 0 49 -4 49 -9 0 -5 -22 -7 -50 -4 -34 4 -50 2 -50 -6 0 -7 12 -9 32 -6 35 7 34 -3 -1 -10 -11 -3 -31 -7 -42 -10 -27 -5 -35 -13 -25 -22 4 -4 11 -1 16 7 9 13 10 13 10 0 0 -11 2 -12 8 -2 5 7 18 15 30 17 12 3 32 8 45 11 44 11 52 12 60 13 4 1 7 9 7 19 0 15 -10 17 -62 18 -61 1 -105 8 -116 19 -3 3 9 5 26 5 19 0 32 5 32 13 0 9 3 8 9 -2 7 -11 9 -11 13 0 3 8 9 10 14 5 5 -5 4 -11 -3 -13 -24 -9 -13 -23 17 -23 17 0 30 5 30 13 0 9 3 8 9 -2 7 -11 9 -11 14 0 4 12 7 11 16 -1 7 -9 11 -11 11 -3 0 7 -6 16 -14 20 -9 5 12 9 51 10 42 1 69 6 74 15 7 10 9 10 9 -2 0 -13 1 -13 10 0 5 8 12 11 16 7 4 -4 5 -10 2 -13 -6 -5 -18 -7 -101 -19 -57 -7 -49 -25 15 -32 52 -6 63 -13 20 -13 -24 0 -32 -5 -33 -17 0 -15 -2 -15 -9 2 -7 17 -9 17 -9 3 -1 -10 -4 -18 -8 -19 -5 0 -15 -2 -23 -4 -8 -2 -26 -6 -39 -9 -13 -3 -26 -8 -30 -11 -5 -6 17 -3 67 9 12 4 32 8 44 11 12 2 25 10 28 16 5 7 9 5 14 -6 8 -22 7 -33 -2 -19 -5 9 -11 8 -20 -2 -11 -13 -9 -14 14 -10 31 6 44 17 27 23 -34 12 -3 18 97 19 74 1 110 -3 110 -10 0 -6 4 -4 9 4 13 19 4 30 -17 24 -14 -5 -15 -4 -2 5 12 8 4 11 -35 12 -27 0 -60 2 -72 5 -13 2 -23 -1 -23 -6 0 -6 14 -10 30 -10 17 0 30 -4 30 -8 0 -4 -23 -8 -50 -8 -33 0 -45 3 -35 9 8 4 15 13 15 20 0 9 -2 9 -8 0 -4 -7 -16 -10 -27 -8 -11 2 -23 4 -27 4 -5 1 -8 5 -8 9 0 5 19 9 43 9 23 1 51 3 62 6 11 3 25 6 30 6 6 1 3 6 -5 11 -11 8 -8 9 14 6 28 -5 47 -15 30 -17 -24 -2 -46 -8 -52 -15 -4 -3 36 -4 88 -1 53 3 80 1 60 -3 l-35 -7 35 -3 c19 -2 52 -3 73 -3 20 0 37 -3 37 -8 0 -5 -3 -9 -7 -10 -5 0 -18 -2 -30 -5 -14 -2 -23 1 -23 9 0 8 -4 7 -10 -3 -6 -10 -10 -11 -10 -2 0 7 -13 12 -32 12 -17 0 -29 -2 -26 -5 9 -10 52 -18 96 -18 23 0 42 -5 42 -11 0 -6 4 -5 9 3 5 8 8 19 7 25 -2 6 -1 8 1 4 3 -5 27 -8 54 -8 27 0 49 -4 49 -9 0 -5 -22 -7 -50 -4 -34 4 -50 2 -50 -6 0 -7 12 -9 32 -6 35 7 34 -3 -1 -10 -11 -3 -31 -7 -42 -10 -27 -5 -35 -13 -25 -22 4 -4 11 -1 16 7 9 13 10 13 10 0 0 -11 2 -12 8 -2 5 7 18 15 30 17 12 3 32 8 45 11 44 11 52 12 60 13 4 1 7 9 7 19 0 15 -10 17 -62 18 -61 1 -105 8 -116 19 -3 3 9 5 26 5 19 0 32 5 32 13 0 9 3 8 9 -2 7 -11 9 -11 13 0 3 8 9 10 14 5 5 -5 4 -11 -3 -13 -24 -9 -13 -23 17 -23 17 0 30 5 30 13 0 9 3 8 9 -2 7 -11 9 -11 14 0 4 12 7 11 16 -1 7 -9 11 -11 11 -3 0 7 -6 16 -14 20 -9 5 12 9 51 10 42 1 69 6 74 15 7 10 9 10 9 -2 0 -13 1 -13 10 0 5 8 12 11 16 7 11 -11 0 -18 -35 -23 -17 -2 -45 -6 -62 -8 -59 -8 -52 -26 13 -33 52 -6 63 -13 20 -13 -24 0 -32 -5 -33 -17 0 -15 -2 -15 -9 2 -7 17 -9 17 -9 3 -1 -10 -4 -18 -8 -19 -5 0 -15 -2 -23 -4 -8 -2 -26 -6 -39 -9 -13 -3 -26 -8 -30 -11 -5 -6 17 -3 67 9 12 4 32 8 44 11 12 2 25 10 28 16 5 7 9 5 14 -6 8 -22 7 -33 -2 -19 -5 9 -11 8 -20 -2 -11 -13 -9 -14 14 -10 31 6 44 17 27 23 -34 12 -3 18 97 19 74 1 110 -3 110 -10 0 -6 4 -4 9 4 13 19 4 30 -17 24 -14 -5 -15 -4 -2 5 12 8 4 11 -35 12 -27 0 -60 2 -72 5 -13 2 -23 -1 -23 -6 0 -6 14 -10 30 -10 17 0 30 -4 30 -8 0 -4 -23 -8 -50 -8 -33 0 -45 3 -35 9 8 4 15 13 15 20 0 9 -2 9 -8 0 -4 -7 -16 -10 -27 -8 -11 2 -23 4 -27 4 -5 1 -8 5 -8 9 0 5 19 9 43 9 23 1 51 3 62 6 11 3 25 6 30 6 6 1 3 6 -5 11 -11 8 -8 9 14 6 28 -5 47 -15 30 -17 -24 -2 -46 -8 -52 -15 -4 -3 36 -4 88 -1 53 3 80 1 60 -3 l-35 -7 35 -3 c19 -2 52 -3 73 -3 20 0 37 -3 37 -8 0 -5 -3 -9 -7 -10 -5 0 -18 -2 -30 -5 -14 -2 -23 1 -23 9 0 8 -4 7 -10 -3 -6 -10 -10 -11 -10 -2 0 7 -13 12 -32 12 -17 0 -29 -2 -26 -5 9 -10 52 -18 96 -18 23 0 42 -5 42 -11 0 -6 4 -5 9 3 5 8 8 19 7 25 -2 6 -1 8 1 4 3 -5 27 -8 54 -8 27 0 49 -4 49 -9 0 -5 -22 -7 -50 -4 -34 4 -50 2 -50 -6 0 -7 12 -9 32 -6 35 7 34 -3 -1 -10 -11 -3 -31 -7 -42 -10 -27 -5 -35 -13 -25 -22 4 -4 11 -1 16 7 9 13 10 13 10 0 0 -11 2 -12 8 -2 5 7 18 15 30 17 12 3 32 8 45 11 44 11 52 12 60 13 4 1 7 9 7 19 0 15 -10 17 -62 18 -61 1 -105 8 -116 19 -3 3 9 5 26 5 19 0 32 5 32 13 0 9 3 8 9 -2 7 -11 9 -11 13 0 3 8 9 10 14 5 5 -5 4 -11 -3 -13 -24 -9 -13 -23 17 -23 17 0 30 5 30 13 0 9 3 8 9 -2 7 -11 9 -11 14 0 4 12 7 11 16 -1 7 -9 11 -11 11 -3 0 7 -6 16 -14 20 -9 5 12 9 51 10 42 1 69 6 74 15 7 10 9 10 9 -2 0 -13 1 -13 10 0 5 8 12 11 16 7 11 -11 0 -18 -35 -23 -17 -2 -45 -6 -62 -8 -59 -8 -52 -26 13 -33 52 -6 63 -13 20 -13 -24 0 -32 -5 -33 -17 0 -15 -2 -15 -9 2 -7 17 -9 17 -9 3 -1 -10 -4 -18 -8 -19 -5 0 -15 -2 -23 -4 -8 -2 -26 -6 -39 -9 -13 -3 -26 -8 -30 -11 -5 -6 17 -3 67 9 12 4 32 8 44 11 12 2 25 10 28 16 5 7 9 5 14 -6 8 -22 7 -33 -2 -19 -5 9 -11 8 -20 -2 -11 -13 -9 -14 14 -10 31 6 44 17 27 23 -34 12 -3 18 97 19 74 1 110 -3 110 -10 0 -6 4 -4 9 4 13 19 4 30 -17 24 -14 -5 -15 -4 -2 5 12 8 4 11 -35 12 -27 0 -60 2 -72 5 -13 2 -23 -1 -23 -6 0 -6 14 -10 30 -10 17 0 30 -4 30 -8 0 -4 -23 -8 -50 -8 -33 0 -45 3 -35 9 8 4 15 13 15 20 0 9 -2 9 -8 0 -4 -7 -16 -10 -27 -8 -11 2 -23 4 -27 4 -5 1 -8 5 -8 9 0 5 19 9 43 9 23 1 51 3 62 6 11 3 25 6 30 6 6 1 3 6 -5 11 -11 8 -8 9 14 6 28 -5 47 -15 30 -17 -24 -2 -46 -8 -52 -15 -4 -3 36 -4 88 -1 53 3 80 1 60 -3 l-35 -7 35 -3 c19 -2 52 -3 73 -3 20 0 37 -3 37 -8 0 -5 -3 -9 -7 -10 -5 0 -18 -2 -30 -5 -14 -2 -23 1 -23 9 0 8 -4 7 -10 -3 -6 -10 -10 -11 -10 -2 0 7 -13 12 -32 12 -17 0 -29 -2 -26 -5 9 -10 52 -18 96 -18 23 0 42 -5 42 -11 0 -6 4 -5 9 3 5 8 8 19 7 25 -2 6 -1 8 1 4 3 -5 27 -8 54 -8 27 0 49 -4 49 -9 0 -5 -22 -7 -50 -4 -34 4 -50 2 -50 -6 0 -7 12 -9 32 -6 35 7 34 -3 -1 -10 -11 -3 -31 -7 -42 -10 -27 -5 -35 -13 -25 -22 4 -4 11 -1 16 7 9 13 10 13 10 0 0 -11 2 -12 8 -2 5 7 18 15 30 17 12 3 32 8 45 11 44 11 52 12 60 13 4 1 7 9 7 19 0 15 -10 17 -62 18 -61 1 -105 8 -116 19 -3 3 9 5 26 5 19 0 32 5 32 13 0 9 3 8 9 -2 7 -11 9 -11 13 0 3 8 9 10 14 5 5 -5 4 -11 -3 -13 -24 -9 -13 -23 17 -23 17 0 30 5 30 13 0 9 3 8 9 -2 7 -11 9 -11 14 0 4 12 7 11 16 -1 7 -9 11 -11 11 -3 0 7 -6 16 -14 20 -9 5 12 9 51 10 42 1 69 6 74 15 7 10 9 10 9 -2 0 -13 1 -13 10 0 5 8 12 11 16 7 11 -11 0 -18 -35 -23 -17 -2 -45 -6 -62 -8 -59 -8 -52 -26 13 -33 52 -6 63 -13 20 -13 -24 0 -32 -5 -33 -17 0 -15 -2 -15 -9 2 -7 17 -9 17 -9 3 -1 -10 -4 -18 -8 -19 -5 0 -15 -2 -23 -4 -8 -2 -26 -6 -39 -9 -13 -3 -26 -8 -30 -11 -5 -6 17 -3 67 9 12 4 32 8 44 11 12 2 25 10 28 16 5 7 9 5 14 -6 8 -22 7 -33 -2 -19 -5 9 -11 8 -20 -2 -11 -13 -9 -14 14 -10 31 6 44 17 27 23 -34 12 -3 18 97 19 74 1 110 -3 110 -10 0 -6 4 -4 9 4 13 19 4 30 -17 24 -14 -5 -15 -4 -2 5 12 8 4 11 -35 12 -27 0 -60 2 -72 5 -13 2 -23 -1 -23 -6 0 -6 14 -10 30 -10 17 0 30 -4 30 -8 0 -4 -23 -8 -50 -8 -33 0 -45 3 -35 9 8 4 15 13 15 20 0 9 -2 9 -8 0 -4 -7 -16 -10 -27 -8 -11 2 -23 4 -27 4 -5 1 -8 5 -8 9 0 5 19 9 43 9 23 1 51 3 62 6 11 3 25 6 30 6 6 1 3 6 -5 11 -11 8 -8 9 14 6 28 -5 47 -15 30 -17 -24 -2 -46 -8 -52 -15 -4 -3 36 -4 88 -1 53 3 80 1 60 -3 l-35 -7 35 -3 c19 -2 52 -3 73 -3 20 0 37 -3 37 -8 0 -5 -3 -9 -7 -10 -5 0 -18 -2 -30 -5 -14 -2 -23 1 -23 9 0 8 -4 7 -10 -3 -6 -10 -10 -11 -10 -2 0 7 -13 12 -32 12 -17 0 -29 -2 -26 -5 9 -10 52 -18 96 -18 23 0 42 -5 42 -11 0 -6 4 -5 9 3 5 8 8 19 7 25 -2 6 -1 8 1 4 3 -5 27 -8 54 -8 27 0 49 -4 49 -9 0 -5 -22 -7 -50 -4 -34 4 -50 2 -50 -6 0 -7 12 -9 32 -6 35 7 34 -3 -1 -10 -11 -3 -31 -7 -42 -10 -27 -5 -35 -13 -25 -22 4 -4 11 -1 16 7 9 13 10 13 10 0 0 -11 2 -12 8 -2 5 7 18 15 30 17 12 3 32 8 45 11 44 11 52 12 60 13 4 1 7 9 7 19 0 15 -10 17 -62 18 -61 1 -105 8 -116 19 -3 3 9 5 26 5 19 0 32 5 32 13 0 9 3 8 9 -2 7 -11 9 -11 13 0 3 8 9 10 14 5 5 -5 4 -11 -4 -13 -23 -9 -12 -23 18 -23 17 0 30 5 30 13 0 9 3 8 9 -2 7 -11 9 -11 14 0 4 12 7 11 16 -1 7 -9 11 -11 11 -3 0 7 -6 16 -14 20 -9 5 12 9 51 10 42 1 69 6 74 15 7 10 9 10 9 -2 0 -13 1 -13 10 0 5 8 12 11 16 7 11 -11 0 -18 -35 -23 -17 -2 -45 -6 -62 -8 -59 -8 -52 -26 13 -33 52 -6 63 -13 20 -13 -24 0 -32 -5 -33 -17 0 -15 -2 -15 -9 2 -7 17 -9 17 -9 3 -1 -10 -4 -18 -8 -19 -5 0 -15 -2 -23 -4 -8 -2 -26 -6 -39 -9 -13 -3 -26 -8 -30 -11 -5 -6 17 -3 67 9 12 4 32 8 44 11 12 2 25 10 28 16 5 7 9 5 14 -6 8 -22 7 -33 -2 -19 -5 9 -11 8 -20 -2 -11 -13 -9 -14 14 -10 31 6 44 17 27 23 -34 12 -3 18 97 19 74 1 110 -3 110 -10 0 -6 4 -4 9 4 13 19 4 30 -17 24 -14 -5 -15 -4 -2 5 12 8 4 11 -35 12 -27 0 -60 2 -72 5 -13 2 -23 -1 -23 -6 0 -6 14 -10 30 -10 17 0 30 -4 30 -8 0 -4 -23 -8 -50 -8 -33 0 -45 3 -35 9 8 4 15 13 15 20 0 9 -2 9 -8 0 -4 -7 -16 -10 -27 -8 -11 2 -23 4 -27 4 -5 1 -8 5 -8 9 0 5 19 9 43 9 23 1 51 3 62 6 11 3 25 6 30 6 6 1 3 6 -5 11 -11 8 -8 9 14 6 28 -5 47 -15 30 -17 -24 -2 -46 -8 -52 -15 -4 -3 36 -4 88 -1 53 3 80 1 60 -3 l-35 -7 35 -3 c19 -2 52 -3 73 -3 20 0 37 -3 37 -8 0 -5 -3 -9 -7 -10 -5 0 -18 -2 -30 -5 -14 -2 -23 1 -23 9 0 8 -4 7 -10 -3 -6 -10 -10 -11 -10 -2 0 7 -13 12 -32 12 -17 0 -29 -2 -26 -5 9 -10 52 -18 96 -18 23 0 42 -5 42 -11 0 -6 4 -5 9 3 5 8 8 19 7 25 -2 6 -1 8 1 4 3 -5 27 -8 54 -8 27 0 49 -4 49 -9 0 -5 -22 -7 -50 -4 -34 4 -50 2 -50 -6 0 -7 12 -9 32 -6 35 7 34 -3 -1 -10 -11 -3 -31 -7 -42 -10 -27 -5 -35 -13 -25 -22 4 -4 11 -1 16 7 9 13 10 13 10 0 0 -11 2 -12 8 -2 5 7 18 15 30 17 12 3 32 8 45 11 44 11 52 12 60 13 4 1 7 9 7 19 0 15 -10 17 -62 18 -61 1 -105 8 -116 19 -3 3 9 5 26 5 19 0 32 5 32 13 0 9 3 8 9 -2 7 -11 9 -11 13 0 3 8 9 10 14 5 5 -5 4 -11 -3 -13 -24 -9 -13 -23 17 -23 17 0 30 5 30 13 0 9 3 8 9 -2 7 -11 9 -11 14 0 4 12 7 11 16 -1 7 -9 11 -11 11 -3 0 7 -6 16 -14 20 -9 5 12 9 51 10 42 1 69 6 74 15 7 10 9 10 9 -2 0 -13 1 -13 10 0 5 8 12 11 16 7 11 -11 0 -18 -35 -23 -17 -2 -45 -6 -62 -8 -59 -8 -52 -26 13 -33 52 -6 63 -13 20 -13 -24 0 -32 -5 -33 -17 0 -15 -2 -15 -9 2 -7 17 -9 17 -9 3 -1 -10 -4 -18 -8 -19 -5 0 -15 -2 -23 -4 -8 -2 -26 -6 -39 -9 -13 -3 -26 -8 -30 -11 -5 -6 17 -3 67 9 12 4 32 8 44 11 12 2 25 10 28 16 5 7 9 5 14 -6 8 -22 7 -33 -2 -19 -5 9 -11 8 -20 -2 -11 -13 -9 -14 14 -10 31 6 44 17 27 23 -34 12 -3 18 97 19 74 1 110 -3 110 -10 0 -6 4 -4 9 4 13 19 4 30 -17 24 -14 -5 -15 -4 -2 5 12 8 4 11 -35 12 -27 0 -60 2 -72 5 -13 2 -23 -1 -23 -6 0 -6 14 -10 30 -10 17 0 30 -4 30 -8 0 -4 -23 -8 -50 -8 -33 0 -45 3 -35 9 8 4 15 13 15 20 0 9 -2 9 -8 0 -4 -7 -16 -10 -27 -8 -11 2 -23 4 -27 4 -5 1 -8 5 -8 9 0 5 19 9 43 9 23 1 51 3 62 6 11 3 25 6 30 6 6 1 3 6 -5 11 -11 8 -8 9 14 6 28 -5 47 -15 30 -17 -24 -2 -46 -8 -52 -15 -4 -3 36 -4 88 -1 53 3 80 1 60 -3 l-35 -7 35 -3 c19 -2 52 -3 73 -3 20 0 37 -3 37 -8 0 -5 -3 -9 -7 -10 -5 0 -18 -2 -30 -5 -14 -2 -23 1 -23 9 0 8 -4 7 -10 -3 -6 -10 -10 -11 -10 -2 0 7 -13 12 -32 12 -17 0 -29 -2 -26 -5 9 -10 52 -18 96 -18 23 0 42 -5 42 -11 0 -6 4 -5 9 3 5 8 8 19 7 25 -2 6 -1 8 1 4 3 -5 27 -8 54 -8 27 0 49 -4 49 -9 0 -5 -22 -7 -50 -4 -34 4 -50 2 -50 -6 0 -7 12 -9 32 -6 35 7 34 -3 -1 -10 -11 -3 -31 -7 -42 -10 -27 -5 -35 -13 -25 -22 4 -4 11 -1 16 7 9 13 10 13 10 0 0 -11 2 -12 8 -2 5 7 18 15 30 17 12 3 32 8 45 11 44 11 52 12 60 13 4 1 7 9 7 19 0 15 -10 17 -62 18 -61 1 -105 8 -116 19 -3 3 9 5 26 5 19 0 32 5 32 13 0 9 3 8 9 -2 7 -11 9 -11 13 0 3 8 9 10 14 5 5 -5 4 -11 -4 -13 -23 -9 -12 -23 18 -23 17 0 30 5 30 13 0 9 3 8 9 -2 7 -11 9 -11 14 0 4 12 7 11 16 -1 7 -9 11 -11 11 -3 0 7 -6 16 -14 20 -9 5 12 9 51 10 42 1 69 6 74 15 7 10 9 10 9 -2 0 -13 1 -13 10 0 5 8 12 11 16 7 11 -11 0 -18 -35 -23 -17 -2 -45 -6 -62 -8 -59 -8 -52 -26 13 -33 52 -6 63 -13 20 -13 -24 0 -32 -5 -33 -17 0 -15 -2 -15 -9 2 -7 17 -9 17 -9 3 -1 -10 -4 -18 -8 -19 -5 0 -15 -2 -23 -4 -8 -2 -26 -6 -39 -9 -13 -3 -26 -8 -30 -11 -5 -6 17 -3 67 9 12 4 32 8 44 11 12 2 25 10 28 16 5 7 9 5 14 -6 8 -22 7 -33 -2 -19 -5 9 -11 8 -20 -2 -11 -13 -9 -14 14 -10 31 6 44 17 27 23 -28 10 -11 23 22 17 l35 -5 -3 863 c-2 785 -4 868 -20 923 -69 238 -246 420 -482 495 l-80 25 -1940 1 c-1067 1 -1965 -2 -1995 -7z m-253 -2185 c-4 -4 -18 -8 -77 -20 -13 -3 -22 -3 -19 1 4 3 17 8 29 10 12 2 24 6 26 8 2 1 13 3 25 4 12 1 19 0 16 -3z m640 0 c-4 -4 -18 -8 -77 -20 -13 -3 -22 -3 -19 1 4 3 17 8 29 10 12 2 24 6 26 8 2 1 13 3 25 4 12 1 19 0 16 -3z m640 0 c-4 -4 -18 -8 -77 -20 -13 -3 -22 -3 -19 1 4 3 17 8 29 10 12 2 24 6 26 8 2 1 13 3 25 4 12 1 19 0 16 -3z m640 0 c-4 -4 -18 -8 -77 -20 -13 -3 -22 -3 -19 1 4 3 17 8 29 10 12 2 24 6 26 8 2 1 13 3 25 4 12 1 19 0 16 -3z m640 0 c-4 -4 -18 -8 -77 -20 -13 -3 -22 -3 -19 1 4 3 17 8 29 10 12 2 24 6 26 8 2 1 13 3 25 4 12 1 19 0 16 -3z m640 0 c-4 -4 -18 -8 -77 -20 -13 -3 -22 -3 -19 1 4 3 17 8 29 10 12 2 24 6 26 8 2 1 13 3 25 4 12 1 19 0 16 -3z m640 0 c-4 -4 -18 -8 -77 -20 -13 -3 -22 -3 -19 1 4 3 17 8 29 10 12 2 24 6 26 8 2 1 13 3 25 4 12 1 19 0 16 -3z m640 0 c-4 -4 -18 -8 -77 -20 -13 -3 -22 -3 -19 1 4 3 17 8 29 10 12 2 24 6 26 8 2 1 13 3 25 4 12 1 19 0 16 -3z m-4280 -10 c-2 -3 -17 -7 -33 -10 -17 -2 -24 -1 -17 4 13 8 58 14 50 6z m640 0 c-2 -3 -17 -7 -33 -10 -17 -2 -24 -1 -17 4 13 8 58 14 50 6z m640 0 c-2 -3 -17 -7 -33 -10 -17 -2 -24 -1 -17 4 13 8 58 14 50 6z m640 0 c-2 -3 -17 -7 -33 -10 -17 -2 -24 -1 -17 4 13 8 58 14 50 6z m640 0 c-2 -3 -17 -7 -33 -10 -17 -2 -24 -1 -17 4 13 8 58 14 50 6z m640 0 c-2 -3 -17 -7 -33 -10 -17 -2 -24 -1 -17 4 13 8 58 14 50 6z m640 0 c-2 -3 -17 -7 -33 -10 -17 -2 -24 -1 -17 4 13 8 58 14 50 6z m640 0 c-2 -3 -17 -7 -33 -10 -17 -2 -24 -1 -17 4 13 8 58 14 50 6z m-4849 -11 c-10 -2 -26 -2 -35 0 -10 3 -2 5 17 5 19 0 27 -2 18 -5z m640 0 c-10 -2 -26 -2 -35 0 -10 3 -2 5 17 5 19 0 27 -2 18 -5z m640 0 c-10 -2 -26 -2 -35 0 -10 3 -2 5 17 5 19 0 27 -2 18 -5z m640 0 c-10 -2 -26 -2 -35 0 -10 3 -2 5 17 5 19 0 27 -2 18 -5z m640 0 c-10 -2 -26 -2 -35 0 -10 3 -2 5 17 5 19 0 27 -2 18 -5z m640 0 c-10 -2 -26 -2 -35 0 -10 3 -2 5 17 5 19 0 27 -2 18 -5z m640 0 c-10 -2 -26 -2 -35 0 -10 3 -2 5 17 5 19 0 27 -2 18 -5z m640 0 c-10 -2 -26 -2 -35 0 -10 3 -2 5 17 5 19 0 27 -2 18 -5z m-4360 -20 c-10 -2 -26 -2 -35 0 -10 3 -2 5 17 5 19 0 27 -2 18 -5z m640 0 c-10 -2 -26 -2 -35 0 -10 3 -2 5 17 5 19 0 27 -2 18 -5z m640 0 c-10 -2 -26 -2 -35 0 -10 3 -2 5 17 5 19 0 27 -2 18 -5z m640 0 c-10 -2 -26 -2 -35 0 -10 3 -2 5 17 5 19 0 27 -2 18 -5z m640 0 c-10 -2 -26 -2 -35 0 -10 3 -2 5 17 5 19 0 27 -2 18 -5z m640 0 c-10 -2 -26 -2 -35 0 -10 3 -2 5 17 5 19 0 27 -2 18 -5z m640 0 c-10 -2 -26 -2 -35 0 -10 3 -2 5 17 5 19 0 27 -2 18 -5z m640 0 c-10 -2 -26 -2 -35 0 -10 3 -2 5 17 5 19 0 27 -2 18 -5z m325 -22 c4 -1 7 -5 7 -11 0 -5 -10 -8 -22 -6 -13 3 -26 5 -30 5 -5 1 -8 5 -8 11 0 5 10 8 23 6 12 -3 25 -5 30 -5z m-5033 -31 c0 -6 -12 -8 -26 -6 -39 7 -42 16 -6 16 18 0 32 -5 32 -10z m5040 -5 c0 -2 -9 -3 -19 -2 -11 0 -18 5 -15 9 4 6 34 0 34 -7z"/><path d="M482 2830 c0 -14 2 -19 5 -12 2 6 2 18 0 25 -3 6 -5 1 -5 -13z"/><path d="M1122 2830 c0 -14 2 -19 5 -12 2 6 2 18 0 25 -3 6 -5 1 -5 -13z"/><path d="M1762 2830 c0 -14 2 -19 5 -12 2 6 2 18 0 25 -3 6 -5 1 -5 -13z"/><path d="M2402 2830 c0 -14 2 -19 5 -12 2 6 2 18 0 25 -3 6 -5 1 -5 -13z"/><path d="M3042 2830 c0 -14 2 -19 5 -12 2 6 2 18 0 25 -3 6 -5 1 -5 -13z"/><path d="M3682 2830 c0 -14 2 -19 5 -12 2 6 2 18 0 25 -3 6 -5 1 -5 -13z"/><path d="M4322 2830 c0 -14 2 -19 5 -12 2 6 2 18 0 25 -3 6 -5 1 -5 -13z"/><path d="M4962 2830 c0 -14 2 -19 5 -12 2 6 2 18 0 25 -3 6 -5 1 -5 -13z"/><path d="M170 2810 c0 -5 5 -10 10 -10 6 0 10 5 10 10 0 6 -4 10 -10 10 -5 0 -10 -4 -10 -10z"/><path d="M197 2806 c-6 -14 -19 -16 -99 -10 -51 4 -91 4 -88 2 3 -3 41 -8 85 -12 44 -3 94 -8 110 -11 22 -4 26 -3 15 5 -12 7 -7 10 20 11 34 2 34 2 5 6 -16 3 -33 9 -36 15 -4 5 -9 3 -12 -6z"/><path d="M810 2810 c0 -5 5 -10 10 -10 6 0 10 5 10 10 0 6 -4 10 -10 10 -5 0 -10 -4 -10 -10z"/><path d="M837 2806 c-6 -14 -19 -16 -99 -10 -51 4 -91 4 -88 2 3 -3 41 -8 85 -12 44 -3 94 -8 110 -11 22 -4 26 -3 15 5 -12 7 -7 10 20 11 34 2 34 2 5 6 -16 3 -33 9 -36 15 -4 5 -9 3 -12 -6z"/><path d="M1450 2810 c0 -5 5 -10 10 -10 6 0 10 5 10 10 0 6 -4 10 -10 10 -5 0 -10 -4 -10 -10z"/><path d="M1477 2806 c-6 -14 -19 -16 -99 -10 -51 4 -91 4 -88 2 3 -3 41 -8 85 -12 44 -3 94 -8 110 -11 22 -4 26 -3 15 5 -12 7 -7 10 20 11 34 2 34 2 5 6 -16 3 -33 9 -36 15 -4 5 -9 3 -12 -6z"/><path d="M2090 2810 c0 -5 5 -10 10 -10 6 0 10 5 10 10 0 6 -4 10 -10 10 -5 0 -10 -4 -10 -10z"/><path d="M2117 2806 c-6 -14 -19 -16 -99 -10 -51 4 -91 4 -88 2 3 -3 41 -8 85 -12 44 -3 94 -8 110 -11 22 -4 26 -3 15 5 -12 7 -7 10 20 11 34 2 34 2 5 6 -16 3 -33 9 -36 15 -4 5 -9 3 -12 -6z"/><path d="M2730 2810 c0 -5 5 -10 10 -10 6 0 10 5 10 10 0 6 -4 10 -10 10 -5 0 -10 -4 -10 -10z"/><path d="M2757 2806 c-6 -14 -19 -16 -99 -10 -51 4 -91 4 -88 2 3 -3 41 -8 85 -12 44 -3 94 -8 110 -11 22 -4 26 -3 15 5 -12 7 -7 10 20 11 34 2 34 2 5 6 -16 3 -33 9 -36 15 -4 5 -9 3 -12 -6z"/><path d="M3370 2810 c0 -5 5 -10 10 -10 6 0 10 5 10 10 0 6 -4 10 -10 10 -5 0 -10 -4 -10 -10z"/><path d="M3397 2806 c-6 -14 -19 -16 -99 -10 -51 4 -91 4 -88 2 3 -3 41 -8 85 -12 44 -3 94 -8 110 -11 22 -4 26 -3 15 5 -12 7 -7 10 20 11 34 2 34 2 5 6 -16 3 -33 9 -36 15 -4 5 -9 3 -12 -6z"/><path d="M4010 2810 c0 -5 5 -10 10 -10 6 0 10 5 10 10 0 6 -4 10 -10 10 -5 0 -10 -4 -10 -10z"/><path d="M4037 2806 c-6 -14 -19 -16 -99 -10 -51 4 -91 4 -88 2 3 -3 41 -8 85 -12 44 -3 94 -8 110 -11 22 -4 26 -3 15 5 -12 7 -7 10 20 11 34 2 34 2 5 6 -16 3 -33 9 -36 15 -4 5 -9 3 -12 -6z"/><path d="M4650 2810 c0 -5 5 -10 10 -10 6 0 10 5 10 10 0 6 -4 10 -10 10 -5 0 -10 -4 -10 -10z"/><path d="M4677 2806 c-6 -14 -19 -16 -99 -10 -51 4 -91 4 -88 2 3 -3 41 -8 85 -12 44 -3 94 -8 110 -11 22 -4 26 -3 15 5 -12 7 -7 10 20 11 34 2 34 2 5 6 -16 3 -33 9 -36 15 -4 5 -9 3 -12 -6z"/><path d="M7 2773 c-3 -5 10 -9 29 -9 39 -2 39 5 1 12 -14 2 -28 1 -30 -3z"/><path d="M627 2774 c-2 -3 -14 -7 -26 -9 -11 -3 -31 -7 -42 -10 -12 -2 -24 -7 -28 -10 -6 -6 23 -2 69 11 14 3 44 7 67 7 24 0 41 3 38 5 -6 6 -73 11 -78 6z"/><path d="M1267 2774 c-2 -3 -14 -7 -26 -9 -11 -3 -31 -7 -42 -10 -12 -2 -24 -7 -28 -10 -6 -6 23 -2 69 11 14 3 44 7 67 7 24 0 41 3 38 5 -6 6 -73 11 -78 6z"/><path d="M1907 2774 c-2 -3 -14 -7 -26 -9 -11 -3 -31 -7 -42 -10 -12 -2 -24 -7 -28 -10 -6 -6 23 -2 69 11 14 3 44 7 67 7 24 0 41 3 38 5 -6 6 -73 11 -78 6z"/><path d="M2547 2774 c-2 -3 -14 -7 -26 -9 -11 -3 -31 -7 -42 -10 -12 -2 -24 -7 -28 -10 -6 -6 23 -2 69 11 14 3 44 7 67 7 24 0 41 3 38 5 -6 6 -73 11 -78 6z"/><path d="M3187 2774 c-2 -3 -14 -7 -26 -9 -11 -3 -31 -7 -42 -10 -12 -2 -24 -7 -28 -10 -6 -6 23 -2 69 11 14 3 44 7 67 7 24 0 41 3 38 5 -6 6 -73 11 -78 6z"/><path d="M3827 2774 c-2 -3 -14 -7 -26 -9 -11 -3 -31 -7 -42 -10 -12 -2 -24 -7 -28 -10 -6 -6 23 -2 69 11 14 3 44 7 67 7 24 0 41 3 38 5 -6 6 -73 11 -78 6z"/><path d="M4467 2774 c-2 -3 -14 -7 -26 -9 -11 -3 -31 -7 -42 -10 -12 -2 -24 -7 -28 -10 -6 -6 23 -2 69 11 14 3 44 7 67 7 24 0 41 3 38 5 -6 6 -73 11 -78 6z"/><path d="M5108 2775 c-3 -3 -15 -8 -27 -10 -11 -3 -31 -7 -42 -10 -12 -2 -24 -7 -28 -10 -5 -6 7 -4 68 9 22 5 54 26 40 26 -3 0 -8 -2 -11 -5z"/><path d="M4762 1650 c0 -14 2 -19 5 -12 2 6 2 18 0 25 -3 6 -5 1 -5 -13z"/><path d="M2410 637 c0 -2 15 -16 33 -33 l32 -29 -29 33 c-28 30 -36 37 -36 29z"/><path d="M2674 608 l-29 -33 33 29 c17 17 32 31 32 33 0 8 -8 1 -36 -29z"/></g><g transform="translate(0.000000,512.000000) scale(0.100000,-0.100000)" fill="#39BFFF" stroke="none"><path d="M603 5113 c9 -2 25 -2 35 0 9 3 1 5 -18 5 -19 0 -27 -2 -17 -5z"/><path d="M4483 5113 c9 -2 25 -2 35 0 9 3 1 5 -18 5 -19 0 -27 -2 -17 -5z"/><path d="M515 5100 c-25 -11 1 -11 35 0 20 6 21 8 5 8 -11 0 -29 -3 -40 -8z"/><path d="M4570 5100 c34 -11 60 -11 35 0 -11 5 -29 8 -40 8 -16 0 -15 -2 5 -8z"/><path d="M350 5033 c-85 -48 -216 -179 -263 -264 -21 -36 -37 -70 -37 -75 0 -5 19 25 42 66 55 99 169 213 268 268 41 23 71 42 65 42 -5 0 -39 -17 -75 -37z"/><path d="M4760 5028 c47 -26 103 -69 151 -117 48 -48 91 -104 117 -151 23 -41 42 -71 42 -66 0 30 -84 151 -154 222 -71 70 -192 154 -222 154 -5 0 25 -19 66 -42z"/><path d="M12 4570 c0 -14 2 -19 5 -12 2 6 2 18 0 25 -3 6 -5 1 -5 -13z"/><path d="M5102 4570 c0 -14 2 -19 5 -12 2 6 2 18 0 25 -3 6 -5 1 -5 -13z"/><path d="M2 4505 c0 -16 2 -22 5 -12 2 9 2 23 0 30 -3 6 -5 -1 -5 -18z"/><path d="M5112 4505 c0 -16 2 -22 5 -12 2 9 2 23 0 30 -3 6 -5 -1 -5 -18z"/></g><g transform="translate(0.000000,512.000000) scale(0.100000,-0.100000)" fill="#ACDFFF" stroke="none"><path d="M4048 2163 c7 -3 16 -2 19 1 4 3 -2 6 -13 5 -11 0 -14 -3 -6 -6z"/><path d="M4610 1985 c19 -19 36 -35 39 -35 3 0 -10 16 -29 35 -19 19 -36 35 -39 35 -3 0 10 -16 29 -35z"/><path d="M4262 1820 c0 -14 2 -19 5 -12 2 6 2 18 0 25 -3 6 -5 1 -5 -13z"/><path d="M3989 1763 c-13 -16 -12 -17 4 -4 9 7 17 15 17 17 0 8 -8 3 -21 -13z"/><path d="M4399 1763 c-13 -16 -12 -17 4 -4 9 7 17 15 17 17 0 8 -8 3 -21 -13z"/><path d="M3522 1700 c0 -14 2 -19 5 -12 2 6 2 18 0 25 -3 6 -5 1 -5 -13z"/><path d="M3521 1584 c0 -11 3 -14 6 -6 3 7 2 16 -1 19 -3 4 -6 -2 -5 -13z"/><path d="M3630 1337 c0 -2 15 -16 33 -33 l32 -29 -29 33 c-28 30 -36 37 -36 29z"/><path d="M4078 1123 c6 -2 18 -2 25 0 6 3 1 5 -13 5 -14 0 -19 -2 -12 -5z"/><path d="M4173 1123 c9 -2 23 -2 30 0 6 3 -1 5 -18 5 -16 0 -22 -2 -12 -5z"/><path d="M543 743 c302 -2 792 -2 1090 0 298 1 52 2 -548 2 -600 0 -843 -1 -542 -2z"/><path d="M3493 743 c302 -2 792 -2 1090 0 298 1 52 2 -548 2 -600 0 -843 -1 -542 -2z"/><path d="M2550 390 c0 -5 5 -10 10 -10 6 0 10 5 10 10 0 6 -4 10 -10 10 -5 0 -10 -4 -10 -10z"/></g><g transform="translate(0.000000,512.000000) scale(0.100000,-0.100000)" fill="#F8FFFF" stroke="none"><path d="M3659 1983 l-24 -28 28 24 c25 23 32 31 24 31 -2 0 -14 -12 -28 -27z"/><path d="M3521 1664 c0 -11 3 -14 6 -6 3 7 2 16 -1 19 -3 4 -6 -2 -5 -13z"/><path d="M3522 1620 c0 -14 2 -19 5 -12 2 6 2 18 0 25 -3 6 -5 1 -5 -13z"/><path d="M4629 1333 c-13 -16 -12 -17 4 -4 9 7 17 15 17 17 0 8 -8 3 -21 -13z"/><path d="M4589 1293 c-13 -16 -12 -17 4 -4 16 13 21 21 13 21 -2 0 -10 -8 -17 -17z"/><path d="M2 643 c9 -176 71 -308 207 -443 68 -68 104 -94 171 -128 160 -78 -16 -73 2207 -70 l1988 3 73 27 c114 42 180 85 268 172 131 131 193 266 202 439 l5 97 -1095 0 c-1193 0 -1144 2 -1246 -57 -97 -55 -179 -158 -203 -253 -7 -28 -16 -50 -19 -50 -3 0 -12 22 -19 50 -24 95 -106 198 -203 253 -102 59 -53 57 -1246 57 l-1095 0 5 -97z"/></g><g transform="translate(0.000000,512.000000) scale(0.100000,-0.100000)" fill="#FFFFFF" stroke="none"><path d="M4035 2161 c-276 -45 -480 -227 -503 -446 -18 -178 22 -292 146 -413 l75 -74 -17 -75 c-10 -41 -15 -77 -11 -81 4 -4 48 15 98 41 l92 48 69 -16 c284 -67 597 62 721 296 96 183 60 388 -94 539 -75 74 -189 138 -295 165 -73 18 -215 26 -281 16z m-62 -263 c53 -28 64 -92 22 -133 -65 -65 -173 9 -133 91 13 28 50 54 76 54 7 0 23 -5 35 -12z m426 -14 c61 -51 26 -144 -54 -144 -88 0 -114 117 -35 157 37 19 55 16 89 -13z"/></g></svg>